PathFileType	4	(X/Y/Z)	C:/Users/opensim2020/Desktop/walking_exp_matlab/subject06_walking14_straight_02.trc	
DataRate	CameraRate	NumFrames	NumMarkers	Units	OrigDataRate	OrigDataStartFrame	OrigNumFrames	
100.00	100.00	8	45	mm	100.00	1724	192	
Frame#	Time	LFHD			RFHD			LBHD			RBHD			C7			T10			CLAV			STRN			RBAK			LSHO			LUPA			LELB			LFRM			LWRA			LWRB			LFIN			RSHO			RUPA			RELB			RFRM			RWRA			RWRB			RFIN			LASI			RASI			LPSI			RPSI			LTHI			LKNE			LTIB			LANK			LHEE			LTOE			RTHI			RKNE			RTIB			RANK			RHEE			RTOE			*39			*40			*41			*42			*43			*44			
		X1	Y1	Z1	X2	Y2	Z2	X3	Y3	Z3	X4	Y4	Z4	X5	Y5	Z5	X6	Y6	Z6	X7	Y7	Z7	X8	Y8	Z8	X9	Y9	Z9	X10	Y10	Z10	X11	Y11	Z11	X12	Y12	Z12	X13	Y13	Z13	X14	Y14	Z14	X15	Y15	Z15	X16	Y16	Z16	X17	Y17	Z17	X18	Y18	Z18	X19	Y19	Z19	X20	Y20	Z20	X21	Y21	Z21	X22	Y22	Z22	X23	Y23	Z23	X24	Y24	Z24	X25	Y25	Z25	X26	Y26	Z26	X27	Y27	Z27	X28	Y28	Z28	X29	Y29	Z29	X30	Y30	Z30	X31	Y31	Z31	X32	Y32	Z32	X33	Y33	Z33	X34	Y34	Z34	X35	Y35	Z35	X36	Y36	Z36	X37	Y37	Z37	X38	Y38	Z38	X39	Y39	Z39	X40	Y40	Z40	X41	Y41	Z41	X42	Y42	Z42	X43	Y43	Z43	X44	Y44	Z44	X45	Y45	Z45	

145	1.440	-934.19745	-492.93219	1651.38843	-1065.54272	-504.64340	1645.10461	-947.24133	-362.69647	1591.02356	-1076.52783	-376.05768	1590.19385	-1007.08258	-374.74176	1435.21338	-1025.86169	-347.73032	1106.21057	-1003.09937	-487.58801	1361.83875	-1003.38257	-530.22290	1186.84229	-1096.17151	-309.48041	1266.98193	-843.88184	-418.62677	1387.21704	-780.74725	-368.64059	1190.75427	-775.29663	-332.22131	1084.56372	-744.97144	-310.78436	937.63470	-759.55939	-352.22397	808.82562	-748.03113	-283.08008	821.04370	-730.09802	-299.37045	733.69269	-1165.38159	-447.43256	1398.85217	-1270.40149	-435.56079	1207.29810	-1293.72034	-470.51697	1094.11731	-1305.77319	-546.63885	1005.08813	-1256.54150	-670.66632	930.81598	-1303.89941	-634.01227	900.68890	-1297.46875	-709.10706	864.47650	-917.14917	-528.81854	953.29572	-1136.09998	-524.36505	953.14990	-938.43103	-368.61560	972.18939	-1107.64941	-372.06995	977.34601	-846.32037	-521.25867	641.65607	-875.28766	-574.10565	489.87662	-878.18872	-611.58539	236.26184	-914.89941	-666.80823	70.66699	-965.30487	-639.55212	43.02789	-909.64124	-812.54974	84.08292	-1179.10193	-431.11777	619.35223	-1157.47119	-406.79123	494.24323	-1150.06836	-268.15329	259.66595	-1103.52100	-184.30833	92.81824	-1060.25708	-136.81656	80.61469	-1097.28247	-324.51892	29.68954	-1000.78351	-396.69794	1687.55078															 
146	1.450	-933.01782	-502.48178	1650.87793	-1064.36194	-514.13885	1644.59985	-946.03937	-372.25870	1590.38293	-1075.31995	-385.61362	1589.50842	-1005.91992	-384.65057	1434.83557	-1024.19861	-358.25305	1105.43921	-1001.83453	-497.48001	1361.37317	-1002.05225	-540.59839	1186.51587	-1094.64771	-319.49823	1266.14612	-842.59839	-428.56281	1386.85461	-779.53058	-378.51901	1190.49585	-774.14459	-342.13345	1084.28223	-743.69202	-320.26837	937.52063	-758.69183	-361.39304	808.49127	-747.09235	-292.37259	820.81946	-729.25244	-308.67764	733.57379	-1164.08801	-457.12680	1398.24280	-1268.81897	-444.97021	1206.58960	-1292.14856	-480.18851	1093.40308	-1304.35400	-556.10699	1004.12286	-1254.79639	-679.75366	929.34760	-1302.48303	-643.28564	899.58392	-1295.81226	-718.17438	863.02991	-915.84021	-539.98718	952.89209	-1134.78772	-534.87677	952.82898	-936.92755	-379.71570	971.44647	-1105.86401	-382.82037	976.65778	-846.14087	-532.74933	641.32068	-874.50903	-585.41119	489.43781	-877.35547	-619.64423	234.97394	-914.32635	-672.39294	68.58414	-964.22058	-644.54004	41.58239	-909.92352	-818.14972	80.71751	-1178.48560	-441.70123	618.73462	-1156.76111	-417.98157	493.38339	-1149.95667	-274.66922	261.30606	-1104.31982	-186.68962	96.46347	-1061.33276	-138.86180	85.47176	-1097.34265	-324.82684	29.70634	-999.63605	-406.20947	1686.98108															 
147	1.460	-931.82294	-512.03693	1650.35535	-1063.20251	-523.69598	1644.09546	-944.84015	-381.79504	1589.84644	-1074.13171	-395.16513	1588.91406	-1004.20264	-394.47812	1433.54041	-1022.23737	-368.52060	1104.89685	-1000.45654	-507.51382	1361.02747	-1000.65320	-551.01514	1186.28638	-1093.01257	-329.57376	1265.29797	-841.21826	-438.59970	1386.59351	-778.17383	-388.70462	1190.26404	-772.92078	-352.21991	1084.05603	-742.82092	-330.49747	937.15167	-757.78943	-371.34897	808.23083	-746.16498	-302.35593	820.58771	-728.41656	-318.49203	733.31219	-1162.67932	-466.69324	1397.57349	-1267.24255	-454.74023	1205.89673	-1290.45081	-489.66962	1092.63000	-1302.72180	-565.20673	1003.04797	-1253.08630	-688.48083	927.57251	-1300.87231	-652.04193	898.23236	-1294.08105	-726.66919	861.16211	-914.51074	-551.41614	952.56641	-1133.31836	-545.44916	952.55646	-935.33789	-391.24921	970.69232	-1104.04749	-393.55630	976.11725	-845.87219	-544.74304	640.93927	-873.63629	-596.71191	488.69766	-876.32031	-627.02289	233.38098	-913.68811	-676.69080	66.17538	-963.37427	-647.43347	39.84103	-909.91882	-822.13947	76.01479	-1177.40869	-452.74982	618.01349	-1156.31201	-429.72183	492.50781	-1149.91382	-281.80133	263.10379	-1105.12610	-189.29404	100.61884	-1062.20520	-141.02299	91.15810	-1097.33521	-325.12125	29.79836	-998.41278	-415.70175	1686.38647															 
148	1.470	-930.60156	-521.62756	1649.93164	-1061.91467	-533.19733	1643.57837	-943.55518	-391.39841	1589.31396	-1072.84265	-404.70816	1588.37195	-1003.04602	-404.03357	1433.01721	-1020.33551	-379.73386	1103.90088	-999.03107	-517.52246	1360.71423	-999.15900	-561.58667	1186.14673	-1091.32886	-339.53110	1264.42566	-839.75226	-448.77893	1386.41028	-776.73328	-399.07153	1190.07190	-771.46716	-362.94861	1083.77539	-741.51141	-341.18787	936.99774	-757.05939	-382.01086	807.92188	-745.16052	-313.03625	820.31720	-727.74542	-329.01791	732.95752	-1161.15881	-476.23520	1396.87646	-1265.51257	-463.94003	1205.15674	-1288.72595	-498.76324	1091.79224	-1300.96265	-574.03577	1001.82416	-1251.35095	-696.79620	925.53455	-1299.10156	-660.10291	896.29175	-1292.37561	-734.63580	858.91278	-913.20624	-563.13397	952.23419	-1132.24695	-556.30438	952.38708	-933.43036	-402.73779	970.10895	-1101.91003	-405.46518	975.17163	-845.29395	-556.70758	640.42285	-872.46851	-607.57813	487.72589	-875.81598	-633.97150	231.86446	-914.29517	-679.54932	64.05764	-964.47131	-649.29517	40.03929	-909.32666	-824.59033	68.11893	-1176.62659	-464.22589	617.31805	-1155.96399	-442.02695	491.54556	-1149.89868	-289.41382	265.07135	-1105.65137	-192.47034	105.23406	-1062.86975	-144.23959	97.12885	-1097.28174	-325.42453	29.86419	-997.07092	-425.18677	1685.87183															 
149	1.480	-929.34491	-531.16260	1649.82666	-1060.78796	-542.66937	1643.38660	-942.22522	-400.96420	1588.94519	-1071.51135	-414.25067	1587.87744	-1001.33020	-413.37149	1432.85156	-1018.05286	-390.44763	1103.29651	-997.56793	-527.61340	1360.62512	-997.68646	-572.22559	1186.16357	-1089.39136	-349.28955	1263.40637	-838.07410	-459.06982	1386.33521	-775.13190	-409.74469	1189.86230	-770.03003	-373.79346	1083.47583	-740.49976	-352.54398	936.46039	-756.42230	-393.32565	807.57037	-744.03497	-324.51126	819.84698	-726.97382	-340.71234	732.48389	-1159.61450	-485.72675	1396.23877	-1263.80859	-473.35007	1204.37866	-1286.87683	-507.65045	1090.84583	-1299.07471	-582.44214	1000.28491	-1249.60498	-704.75031	923.17114	-1297.45056	-667.86011	894.22205	-1290.47156	-741.84888	856.16028	-912.00854	-574.89246	951.97040	-1131.05872	-567.11884	952.21503	-931.38330	-414.44482	969.76257	-1100.01245	-416.24985	974.77490	-844.20905	-568.45258	640.03021	-870.93793	-617.79553	487.03989	-876.23083	-641.04767	231.03072	-914.15887	-682.13977	63.78142	-964.83606	-651.39722	41.66468	-908.66571	-828.04083	60.50686	-1175.79126	-476.15170	616.49011	-1155.45349	-455.11124	490.48544	-1149.65479	-297.62033	267.35001	-1105.96228	-196.15398	110.36551	-1063.05823	-147.67554	104.07181	-1097.23853	-325.84384	29.99798	-995.78784	-434.62210	1685.47546															 
150	1.490	-928.16382	-540.60016	1650.33862	-1059.61719	-551.99835	1643.72205	-940.80286	-410.66821	1588.93750	-1070.12512	-423.75607	1587.89417	-999.63892	-423.15665	1432.55176	-1016.02124	-401.73077	1102.60376	-996.11041	-537.50500	1360.94568	-996.22009	-582.54730	1186.47070	-1086.97095	-358.99768	1262.91919	-836.24060	-469.54535	1386.41943	-773.33240	-420.68906	1189.71375	-768.42511	-385.00784	1083.11584	-738.97400	-364.23184	936.06085	-756.07465	-405.06567	807.21899	-743.06714	-336.49478	819.41351	-726.31976	-353.04578	732.01056	-1158.20862	-495.09021	1395.88013	-1262.11572	-482.61371	1203.62231	-1285.09473	-516.37891	1089.88904	-1297.32861	-590.43542	998.63495	-1247.84021	-712.43323	920.59100	-1295.90515	-675.08600	892.02380	-1288.97693	-748.91943	853.31097	-910.98706	-586.57733	952.01343	-1129.84875	-577.93024	952.19708	-929.38342	-426.04221	970.03375	-1098.36401	-427.14322	974.45367	-842.85229	-579.81207	640.35406	-869.25598	-627.35370	487.21753	-875.21869	-648.62701	231.45070	-913.35504	-685.73822	63.50677	-963.86511	-653.95752	42.99160	-908.14819	-831.30579	56.41743	-1174.98193	-488.68744	615.65399	-1155.01282	-468.90680	489.40619	-1149.12744	-306.62152	270.10272	-1105.96814	-200.52002	116.37190	-1063.42041	-152.40320	112.01067	-1096.97217	-326.33957	30.16818	-994.57660	-443.87521	1685.55579															 
151	1.500	-926.98132	-550.04553	1651.21448	-1058.40625	-561.29803	1644.46423	-939.31787	-420.33099	1589.48413	-1068.71655	-433.19525	1588.11438	-997.64325	-433.06589	1432.97021	-1014.27509	-412.52643	1102.54187	-994.75574	-547.17535	1361.60046	-994.78552	-592.81903	1187.21875	-1084.21777	-368.89777	1262.81897	-834.36383	-479.99417	1386.72974	-771.60687	-432.18311	1189.65039	-766.66089	-396.80408	1082.85217	-737.97821	-376.79147	935.51691	-755.59216	-417.90451	806.94135	-742.17853	-349.19257	818.90796	-725.64941	-365.95062	731.42651	-1156.93433	-504.45264	1395.85046	-1260.32617	-491.59781	1203.15930	-1283.20618	-524.90454	1089.06458	-1295.40881	-598.12970	996.99731	-1246.24902	-719.14343	917.54852	-1294.14490	-681.62054	889.48627	-1287.49585	-755.12372	850.15826	-909.99805	-598.25995	952.64539	-1128.94824	-588.79578	952.49890	-927.84857	-437.39481	970.98218	-1097.13843	-437.17303	974.76471	-841.65094	-590.83252	641.75867	-867.49274	-636.61127	488.03894	-873.25055	-655.58063	232.22400	-912.35449	-689.01044	63.43562	-962.78564	-656.29846	44.32298	-907.85370	-834.13611	52.52225	-1174.45349	-501.70212	615.15216	-1154.70874	-483.66074	488.46954	-1148.47925	-316.66129	273.23636	-1105.70337	-206.19022	123.03983	-1063.00415	-158.57088	120.64264	-1096.40869	-327.27893	30.40420	-993.35260	-453.08777	1686.13660															 
152	1.510	-925.88165	-559.58508	1652.22290	-1057.22900	-570.59503	1645.31006	-937.91058	-429.85342	1590.41736	-1067.27173	-442.55856	1588.90662	-996.06873	-442.74167	1434.26404	-1012.46722	-422.93073	1103.18140	-993.43988	-556.77704	1362.52441	-993.39899	-602.87335	1188.29846	-1081.66956	-378.59985	1263.08765	-832.53516	-490.61057	1387.32336	-769.81598	-444.01184	1189.79016	-764.84180	-409.12122	1082.74231	-736.60999	-389.86505	935.22546	-755.20404	-431.47083	806.96698	-741.02307	-362.81522	818.47858	-725.12952	-380.01175	731.11041	-1155.70630	-513.81952	1396.28528	-1257.95313	-500.24503	1202.91138	-1281.11670	-533.32635	1088.61548	-1293.24377	-605.47504	995.54846	-1244.60059	-725.43604	914.44037	-1292.43591	-687.41736	886.83447	-1286.01807	-760.47876	846.73584	-908.97632	-609.74042	953.98749	-1127.83740	-599.46765	953.13867	-926.60461	-448.56012	972.42432	-1095.57141	-448.91037	974.40179	-840.40625	-601.66205	643.80817	-865.72607	-645.68866	489.09241	-871.14130	-661.38226	232.83879	-911.24902	-690.79462	63.14288	-961.47607	-657.68359	45.12024	-908.25238	-836.57471	47.88359	-1173.58459	-515.46490	614.78961	-1154.60486	-499.30176	487.77695	-1147.86560	-328.06201	276.79776	-1104.91052	-213.21841	130.13522	-1061.77893	-166.01805	129.86708	-1095.71570	-328.65344	30.69518	-992.05811	-462.46698	1686.88892															 
